<?xml version="1.0" encoding="utf-8"?><svg viewBox="0 0 25 25" xmlns="http://www.w3.org/2000/svg" xmlns:xlink="http://www.w3.org/1999/xlink"><style>:root>svg{display:none}:root>svg:target{display:block}</style><svg fill="none" viewBox="0 0 12 3" id="arrow-horizontal" xmlns="http://www.w3.org/2000/svg"><path d="M1.188 1.5h9.624" stroke="#fff" stroke-width="1.5" stroke-linecap="round" stroke-linejoin="round"/></svg><svg fill="none" viewBox="0 0 14 15" id="arrow-right" xmlns="http://www.w3.org/2000/svg"><g clip-path="url(#ba)" stroke="#fff" stroke-width="1.5" stroke-linecap="round" stroke-linejoin="round"><path d="M2.188 7.5h9.624M7.875 3.563 11.813 7.5l-3.938 3.938"/></g><defs><clipPath id="ba"><path fill="#fff" transform="translate(0 .5)" d="M0 0h14v14H0z"/></clipPath></defs></svg><svg fill="none" viewBox="0 0 24 24" id="facebook" xmlns="http://www.w3.org/2000/svg"><g clip-path="url(#ca)"><path d="M24 12.25c0-6.627-5.372-12-12-12-6.627 0-12 5.373-12 12 0 5.628 3.875 10.35 9.102 11.647v-7.98H6.627v-3.666h2.475v-1.58c0-4.085 1.848-5.978 5.858-5.978.76 0 2.072.15 2.609.298v3.324c-.283-.03-.775-.045-1.386-.045-1.968 0-2.728.746-2.728 2.684v1.296h3.92l-.674 3.668h-3.246v8.245C19.395 23.445 24 18.386 24 12.25Z" fill="#36F"/></g><defs><clipPath id="ca"><path fill="#fff" d="M0 0h24v24H0z"/></clipPath></defs></svg><svg fill="none" viewBox="0 0 24 24" id="inst" xmlns="http://www.w3.org/2000/svg"><g clip-path="url(#da)"><path d="M12 0C8.743 0 8.334.014 7.054.072 5.775.131 4.903.333 4.14.63a5.876 5.876 0 0 0-2.126 1.384A5.89 5.89 0 0 0 .63 4.139c-.297.763-.5 1.636-.557 2.913C.015 8.332 0 8.74 0 12c0 3.259.014 3.667.072 4.947.059 1.277.261 2.15.558 2.912a5.88 5.88 0 0 0 1.384 2.126 5.876 5.876 0 0 0 2.125 1.385c.763.297 1.635.5 2.913.558 1.28.058 1.688.072 4.947.072 3.26 0 3.667-.014 4.947-.072 1.278-.059 2.15-.261 2.914-.558a5.872 5.872 0 0 0 2.125-1.385 5.89 5.89 0 0 0 1.384-2.125c.296-.764.498-1.636.558-2.913.058-1.28.073-1.688.073-4.947 0-3.26-.015-3.668-.073-4.948-.06-1.278-.262-2.15-.558-2.913a5.89 5.89 0 0 0-1.384-2.125A5.865 5.865 0 0 0 19.86.63c-.765-.297-1.638-.5-2.916-.558C15.664.014 15.257 0 11.997 0H12Zm-1.076 2.162h1.077c3.204 0 3.583.012 4.849.07 1.17.053 1.805.248 2.228.413.56.217.959.477 1.379.897.42.42.68.82.898 1.38.164.423.36 1.058.413 2.228.058 1.265.07 1.645.07 4.847 0 3.203-.012 3.583-.07 4.848-.053 1.17-.249 1.805-.413 2.227a3.71 3.71 0 0 1-.898 1.379c-.42.42-.819.68-1.38.897-.422.165-1.057.36-2.227.414-1.265.057-1.645.07-4.85.07-3.204 0-3.583-.013-4.848-.07-1.17-.054-1.805-.25-2.229-.414a3.717 3.717 0 0 1-1.38-.897c-.42-.42-.68-.82-.898-1.38-.164-.422-.36-1.057-.413-2.227-.057-1.265-.069-1.645-.069-4.85 0-3.204.012-3.582.069-4.847.054-1.17.249-1.805.413-2.228.218-.56.478-.96.898-1.38.42-.42.82-.68 1.38-.898.423-.165 1.059-.36 2.229-.414 1.107-.05 1.536-.065 3.772-.068v.003Zm7.482 1.993a1.44 1.44 0 1 0 0 2.88 1.44 1.44 0 0 0 0-2.88Zm-6.405 1.682a6.163 6.163 0 1 0 0 12.326 6.163 6.163 0 0 0 0-12.326ZM12 8a4 4 0 1 1 0 8 4 4 0 0 1 0-8Z" fill="#36F"/></g><defs><clipPath id="da"><path fill="#fff" d="M0 0h24.001v24H0z"/></clipPath></defs></svg><svg fill="none" viewBox="0 0 25 25" id="linkedin" xmlns="http://www.w3.org/2000/svg"><path d="M23.057.25c.91 0 1.714.804 1.714 1.768v20.518c0 .964-.803 1.714-1.714 1.714H2.432c-.91 0-1.66-.75-1.66-1.714V2.018c0-.964.75-1.768 1.66-1.768h20.625ZM8.003 20.822V9.412H4.468v11.41h3.535ZM6.235 7.804c1.125 0 2.036-.91 2.036-2.036 0-1.125-.91-2.089-2.036-2.089-1.178 0-2.089.964-2.089 2.09 0 1.124.91 2.035 2.09 2.035Zm15.108 13.018v-6.268c0-3.053-.697-5.464-4.286-5.464-1.714 0-2.893.964-3.375 1.875h-.054V9.41h-3.375v11.41h3.536v-5.624c0-1.5.268-2.946 2.143-2.946 1.821 0 1.821 1.714 1.821 3v5.57h3.59Z" fill="#36F"/></svg><svg fill="none" viewBox="0 0 14 15" id="readmore-link" xmlns="http://www.w3.org/2000/svg"><g clip-path="url(#fa)"><path d="M5.25 3.125 9.625 7.5 5.25 11.875" stroke="#36F" stroke-width="1.5" stroke-linecap="round" stroke-linejoin="round"/></g><defs><clipPath id="fa"><path fill="#fff" transform="translate(0 .5)" d="M0 0h14v14H0z"/></clipPath></defs></svg><svg fill="none" viewBox="0 0 25 25" id="telegram" xmlns="http://www.w3.org/2000/svg"><path d="M12.147.25c6.58 0 12 5.42 12 12 0 6.63-5.42 12-12 12-6.63 0-12-5.37-12-12 0-6.58 5.37-12 12-12Zm5.516 8.178a.82.82 0 0 0 0-.484c0-.097-.097-.242-.145-.29-.145-.145-.387-.145-.484-.145-.435 0-1.161.241-4.5 1.645-1.161.484-3.484 1.451-6.968 3-.58.242-.87.435-.92.677-.048.387.582.532 1.307.774.63.194 1.452.436 1.887.436.387 0 .823-.145 1.307-.484 3.242-2.226 4.935-3.339 5.032-3.339.097 0 .194-.048.242 0 .097.097.097.194.048.242-.048.242-3.096 3.049-3.29 3.242-.677.678-1.452 1.113-.242 1.887 1.016.678 1.597 1.113 2.662 1.79.677.436 1.21.968 1.887.92.338-.049.677-.339.822-1.258.436-2.08 1.21-6.726 1.355-8.613Z" fill="#36F"/></svg></svg>